<svg width="260" height="72" viewBox="0 0 260 72" fill="none" xmlns="http://www.w3.org/2000/svg">
<path fill-rule="evenodd" clip-rule="evenodd" d="M178.3 1.10814C179.147 0.782966 180.05 0.63129 180.956 0.662113L180.963 0.668225C181.862 0.627358 182.761 0.774572 183.601 1.1005C184.44 1.42643 185.203 1.92389 185.84 2.56111C186.476 3.19834 186.973 3.96131 187.298 4.80133C187.623 5.64136 187.769 6.53998 187.728 7.43978C187.762 8.34495 187.612 9.24751 187.287 10.0933C186.963 10.9391 186.471 11.7105 185.841 12.3612C185.206 13.0053 184.443 13.5101 183.603 13.8433C182.762 14.1765 181.86 14.331 180.956 14.2969C180.047 14.3301 179.14 14.1756 178.292 13.8429C177.445 13.5101 176.676 13.0063 176.031 12.3629C175.388 11.7195 174.883 10.9503 174.549 10.1032C174.216 9.2562 174.061 8.34952 174.093 7.43978C174.06 6.53587 174.215 5.63493 174.548 4.79403C174.881 3.95313 175.386 3.19063 176.029 2.55496C176.681 1.92532 177.454 1.43331 178.3 1.10814ZM222.555 18.8223C219.743 17.1493 216.195 16.3148 211.912 16.3189C205.172 16.3189 199.896 18.2382 196.086 22.0769C192.275 25.9156 190.37 31.2076 190.37 37.9528C190.273 42.0308 191.163 46.0718 192.965 49.7314C194.615 52.9925 197.183 55.6991 200.354 57.5165C203.545 59.361 207.341 60.285 211.741 60.2887C215.548 60.2887 218.727 59.7026 221.279 58.5305C223.679 57.4775 225.768 55.8271 227.349 53.7372C228.854 51.6853 229.971 49.3759 230.646 46.9226L220.266 44.0161C219.829 45.6114 218.988 47.0668 217.823 48.2415C216.651 49.4139 214.687 50.0001 211.931 50.0001C208.654 50.0001 206.212 49.0618 204.603 47.1852C203.438 45.8296 202.705 43.894 202.381 41.3844H230.805C230.921 40.212 230.982 39.2289 230.982 38.4351V35.84C231.051 32.3538 230.33 28.8971 228.875 25.7284C227.513 22.8417 225.31 20.4345 222.555 18.8223ZM211.565 26.2535C216.449 26.2535 219.219 28.6572 219.875 33.4648H202.595C202.869 31.8607 203.534 30.3487 204.531 29.0623C206.114 27.1857 208.459 26.2494 211.565 26.2535ZM96.8141 18.4244C99.5093 17.134 102.996 16.4888 107.274 16.4888C113.596 16.4888 118.163 17.9543 120.976 20.8852C123.789 23.8161 125.196 27.9499 125.196 33.2867V59.1091H114.998L113.447 48.9122H113.038C112.488 51.2361 111.463 53.4208 110.028 55.3298C107.598 58.4357 104.125 59.9884 99.6112 59.9884C95.9717 60.0009 92.951 59.0056 90.5497 57.0026C88.1478 55.0001 86.9471 51.9469 86.9471 47.8436C86.9429 43.838 88.1436 40.614 90.5497 38.1715C92.9552 35.7291 96.9119 34.5079 102.42 34.5079H113.24V33.3966C113.24 31.1679 112.721 29.4764 111.701 28.2552C110.671 27.0341 109.014 26.4234 106.73 26.4234C104.994 26.3428 103.283 26.872 101.895 27.9194C100.674 28.9208 99.8592 30.6203 99.4521 33.018L88.1987 31.4365C88.4951 28.721 89.363 26.0991 90.7447 23.7428C92.1892 21.4019 94.3041 19.549 96.8141 18.4244ZM104.465 50.341C107.103 50.341 109.222 49.6693 110.84 48.3199C111.614 47.6979 112.234 46.9063 112.654 46.0064C113.073 45.1065 113.28 44.1222 113.258 43.1297V42.4275H102.615C102.085 42.3984 101.555 42.4771 101.057 42.6587C100.558 42.8402 100.102 43.1209 99.7147 43.4838C99.3569 43.8569 99.0787 44.2988 98.8972 44.7827C98.7157 45.2666 98.6341 45.7825 98.6585 46.2988C98.645 46.8462 98.7527 47.3899 98.9731 47.8912C99.1936 48.3924 99.5223 48.839 99.9346 49.1992C100.781 49.9604 102.291 50.341 104.465 50.341ZM61.0188 48.8218L61.0552 48.9379H84.5088V59.1353H46.3457V48.9379L69.2374 27.7558L69.201 27.6581H47.0479V17.4609H84.1364V27.6581L61.0188 48.8218ZM186.851 17.4609H174.804V59.141H186.851V17.4609ZM249.929 21.0636C251.891 18.6618 254.574 17.4609 257.977 17.4609H259.998V29.4106H255.424C252.029 29.4106 249.701 30.1291 248.439 31.566C247.177 33.003 246.547 35.0689 246.547 37.7637V59.1353H234.499V17.4609H244.788L246.363 28.7145H246.717C247.45 25.3399 248.52 22.7895 249.929 21.0636ZM156.073 16.3188C151.97 16.3188 148.673 17.6072 146.181 20.184C144.337 22.0931 142.984 24.9427 142.121 28.7325H141.736L140.161 17.479H129.871V71.1151H141.919V49.0231H142.359C142.726 50.4961 143.242 51.9281 143.897 53.2972C144.917 55.5275 146.588 57.3969 148.691 58.6584C150.871 59.8482 153.327 60.4405 155.81 60.3744C160.854 60.3744 164.695 58.4104 167.333 54.4818C169.97 50.5537 171.289 45.0725 171.289 38.0383C171.289 31.2442 170.013 25.9258 167.461 22.083C164.909 18.2402 161.113 16.3188 156.073 16.3188ZM157.294 46.5196C155.89 48.555 153.692 49.5726 150.7 49.5726C149.466 49.6296 148.236 49.3918 147.113 48.8789C145.989 48.366 145.005 47.5928 144.24 46.6234C142.68 44.6654 141.903 41.9848 141.907 38.5817V37.7879C141.907 34.3318 142.684 31.6858 144.24 29.8499C145.794 28.0141 147.948 27.1063 150.7 27.1266C153.745 27.1266 155.957 28.0934 157.337 30.027C158.717 31.9606 159.407 34.6575 159.407 38.1176C159.415 41.6957 158.715 44.4964 157.306 46.5196H157.294ZM-6.10352e-05 48.937H41.6802V59.1465H-6.10352e-05V48.937Z" fill="black" style="fill:black;fill-opacity:1;"/>
</svg>
