<svg width="136" height="57" viewBox="0 0 136 57" fill="none" xmlns="http://www.w3.org/2000/svg">
<path d="M31.0857 55.0074H18.9428V0.607422H37.4L40.8 23.436H41.2857L43.7142 0.607422H62.1714V55.0074H50.0285V22.4646H49.5428L45.1714 55.0074H35.9428L31.0857 22.4646V55.0074Z" fill="black"/>
<path d="M67.0286 0.12143C68.9714 0.12143 82.5714 -0.364287 89.8571 0.607142C95.6857 1.09286 98.6 5.95 99.0857 11.7786C99.5714 22.4643 99.5714 33.15 99.5714 43.8357C99.5714 44.8071 99.5714 46.2643 99.0857 47.7214C98.1143 52.0929 95.6857 54.5214 89.8571 55.0072C82.5714 55.4929 75.2857 55.4929 68.4857 55.4929C68.4857 55.4929 68 55.4929 67.5143 55.4929V0.12143H67.0286ZM81.6 10.3214V45.2929C84.0286 45.2929 85.4857 44.3214 85.4857 41.8929C85.4857 32.6643 85.4857 22.95 85.4857 13.2357C85.4857 10.8071 84.5143 9.83571 81.6 10.3214Z" fill="black"/>
<path d="M0 55.0074V0.607422H14.0857V55.0074H0Z" fill="black"/>
<path d="M135.514 21.0074C135.029 17.1217 132.6 15.1789 128.714 14.2074C124.829 13.7217 120.943 14.2074 117.543 17.6074V0.607422H103.943V55.0074H116.571C117.057 54.036 117.057 53.0646 117.543 52.5789C117.543 52.5789 117.543 52.5789 118.029 52.5789C118.514 53.0646 119 53.5503 119.486 54.036C122.886 56.4646 126.771 56.9503 130.657 55.4931C134.057 54.036 135.514 51.1217 135.514 47.7217C135.514 43.836 136 39.4646 136 35.0931C136 30.236 136 25.3789 135.514 21.0074ZM121.914 45.2931C121.914 46.2646 120.943 47.236 119.971 47.236C119 47.236 118.029 46.2646 118.029 45.2931V24.4074C118.029 23.436 119 22.4646 119.971 22.4646C120.943 22.4646 121.914 23.436 121.914 24.4074V45.2931Z" fill="black"/>
</svg>
